 http://img204.imageshack.us/img204/7296/abductionl.jpg


Verenigde Staten
Actie / Thriller
106 minuten

geregisseerd door John Singleton
met Taylor Lautner, Lily Collins en Alfred Molina

Wat zou je doen als je je eigen foto op een site met vermiste personen zou zien? Het overkomt Nathan Harper (Taylor Lautner), die op zoek gaat naar zijn ware identiteit en er al snel achterkomt dat zijn ouders totaal andere mensen zijn dan dat ze beweren. Wanneer de politie en de regering dan achter hem aan komt, zal Nathan in een race tegen de klok op zoek moeten naar de waarheid.



Vertaald door Simply ReleaseS Toppers
Markow87 en Jesprulin





Screenshots:
 
http://img528.imageshack.us/img528/6762/screenshot1mk.jpg
 
http://img710.imageshack.us/img710/6316/screenshot2hv.jpg
 
http://img266.imageshack.us/img266/8239/screenshot3hb.jpg
 
http://img824.imageshack.us/img824/1313/screenshot4vt.jpg



INFO;


Video
ID                                       : 0
Format                                   : MPEG-4 Visual
Format profile                           : Advanced Simple@L5
Format settings, BVOP                    : 1
Format settings, QPel                    : No
Format settings, GMC                     : No warppoints
Format settings, Matrix                  : Custom
Codec ID                                 : XVID
Codec ID/Hint                            : XviD
Duration                                 : 1h 46mn
Bit rate                                 : 787 Kbps
Width                                    : 656 pixels
Height                                   : 288 pixels
Display aspect ratio                     : 2.25:1
Frame rate                               : 29.970 fps
Color space                              : YUV
Chroma subsampling                       : 4:2:0
Bit depth                                : 8 bits
Scan type                                : Progressive
Compression mode                         : Lossy
Bits/(Pixel*Frame)                       : 0.139
Stream size                              : 602 MiB (86%)
Writing library                          : XviD 64

Audio
ID                                       : 1
Format                                   : MPEG Audio
Format version                           : Version 1
Format profile                           : Layer 3
Mode                                     : Joint stereo
Mode extension                           : MS Stereo
Codec ID                                 : 55
Codec ID/Hint                            : MP3
Duration                                 : 1h 46mn
Bit rate mode                            : Variable
Bit rate                                 : 113 Kbps
Nominal bit rate                         : 128 Kbps
Channel(s)                               : 2 channels
Sampling rate                            : 48.0 KHz
Compression mode                         : Lossy
Stream size                              : 86.3 MiB (12%)
Alignment                                : Aligned on interleaves
Interleave, duration                     : 24 ms (0.72 video frame)
Interleave, preload duration             : 414 ms



 
http://www.imdb.com/title/tt1600195/ 
http://www.moviemeter.nl/film/71502




Deze film wordt u aangeboden door het DutchReleaseTeam.
Voor de reviews van de nieuwste films, muziek, series, games etc
ga dan eens naar http://www.hetmultimediacafe.be

DutchReleaseteam = Hardcoded Dutch Subs